<svg xmlns="http://www.w3.org/2000/svg" viewBox="-110 -90 220 180" role="img" aria-labelledby="title desc">
  <title id="title">Island as needle</title>
  <desc id="desc">Prince Edward Island as the horizontal arm of a compass needle with a Charlottetown benchmark.</desc>
  <defs>
    <path id="pei-shape" d="M0 44.1 L2.1 38.2 L10.7 28.7 L18.2 14.6 L26.3 7.8 L33.1 0 L33.1 1.7 L34.6 2.9 L34 12.8 L36 19 L31.9 25.1 L32.5 30.1 L27.7 21.4 L29.2 29.6 L28 31 L26.3 30.1 L26.5 31.9 L24.5 31 L23.3 33.3 L19.7 35.7 L26.9 33.1 L28.1 34.5 L25 39.4 L28.1 39.9 L28.3 37.9 L31 39.4 L30.7 35.7 L35.1 37.8 L36.3 37 L34.6 35.5 L35.4 34.2 L33.9 31.8 L42.6 40.3 L54.6 47.9 L53.9 49.5 L53.4 48 L50.4 47.3 L45.9 42.4 L40.8 40.6 L43 42.3 L43.2 44.4 L46 47.9 L48.6 49.5 L45.6 48.8 L44.1 49.8 L43.2 48.9 L41.2 50.9 L44.1 50.6 L48 52.4 L46.4 54.8 L46.4 58.1 L42.9 59 L38.1 65.5 L39.9 65.3 L41.1 62.5 L48.2 59.7 L48.8 58.2 L51 59.7 L51.6 61.7 L48.5 65 L52.8 64.7 L54.9 66.5 L56.9 64.7 L60.6 64.7 L61.2 63.1 L59.7 61.1 L54.9 61.3 L57.2 59.7 L55.2 56.6 L58.5 56.3 L58.1 54.9 L57.2 55.2 L57.8 52.7 L59.6 52.5 L62.3 54.9 L62 49.8 L72.8 51.8 L80.4 55.8 L75.4 54.8 L75.1 58.7 L70.1 60.3 L71.6 61.6 L74.3 61.7 L76.4 59.6 L77.8 63.7 L78.9 58.8 L81.6 58.2 L81.1 55.8 L88.5 55.8 L92.2 60.6 L91 60.3 L87.9 64.1 L92.9 62.3 L94.2 63.8 L93.6 66.2 L94.7 68 L98 64.4 L100.2 66.2 L100.7 64.7 L104.1 65.2 L99.6 62.2 L97.2 62.5 L96.6 63.8 L96.3 62.2 L94.2 60.8 L110 63.7 L113 65.2 L110.2 68.5 L114.7 67.9 L116.3 70.3 L115.9 66.4 L117.4 66.7 L117.4 64.1 L113.3 63.2 L127.6 59.9 L127.6 64.6 L129.1 62.9 L128.8 60.6 L137.1 57.6 L139.2 60.5 L139.8 58.7 L142.2 59 L143.6 61 L143.7 58.8 L149.3 59.7 L150.8 58.7 L149.4 57.8 L138.9 56.7 L154.6 51.6 L168.1 50.6 L184 46.2 L190.8 46.5 L193.7 48 L197.4 47 L200 49.2 L196.5 53.3 L193.4 54.8 L191 58.4 L180.3 65.2 L177.6 64.6 L176.2 65.6 L173.7 61.9 L173.7 65.2 L175 65.6 L173.7 67.6 L171.7 67.6 L169.6 65.6 L168.1 67.1 L166.1 66.2 L168.7 69.1 L168.7 71.9 L166.3 73.9 L166.1 77.4 L165.2 76.2 L163.9 77.4 L164.2 76 L162.7 74.3 L161.8 75.7 L160.1 75.7 L156.2 73.4 L156.5 74.8 L162.8 78.6 L164 86.8 L158.3 82.9 L156.4 84.7 L150.2 81.4 L149 81.7 L150 83.2 L146.4 82.9 L151.8 84.6 L155.5 87.4 L151.8 87.9 L147.5 85.9 L147.5 87.6 L145.4 90.3 L143.7 89.8 L144.2 90.7 L148.4 88 L151.4 89.2 L150.6 90.3 L152.1 92.1 L150.8 93 L151.7 93.6 L151.1 96.5 L152.4 94.4 L155.3 95.4 L155.3 93.5 L157.4 93.3 L157.3 90.9 L160.4 96.8 L157.9 104 L153 101.4 L148.1 105.9 L151.4 105 L152.3 103.2 L155.3 104 L156.8 105.2 L155.3 106.1 L155.2 105 L154.9 106.7 L160.9 106.1 L158.5 109.3 L151.4 113.6 L131.7 115.4 L124.9 112 L125.2 109.9 L120.7 106.2 L121.6 105.9 L121 104.1 L124.8 104.6 L122.8 102.9 L124 101.4 L120.4 104.7 L115.3 104.1 L112 105 L113 103.5 L124.2 98.7 L123.6 97.2 L126 93.9 L124.6 92 L127 90.7 L124 91 L123.6 94.1 L118.4 96.6 L117.1 95.4 L118.6 91.4 L116.6 89.2 L114.5 89.2 L113.3 91.4 L110.6 89.5 L106.2 89.8 L105.6 88.3 L108.5 85.9 L107.9 84.9 L110.2 84.9 L108.8 83.4 L110.9 81 L112.9 82.3 L112.1 79.2 L114.1 76.9 L116.2 78.7 L115.9 76 L118.7 75.2 L123.4 70 L125.7 69.2 L127.5 70.4 L126 68.2 L118.3 71.9 L117.1 74.3 L110.9 76.9 L110.2 75.8 L110 78.9 L107.8 78.6 L108.5 80.7 L104.3 84.9 L102 83.7 L101.7 80.4 L101 81.4 L97.2 79 L101.3 86.1 L98 88.6 L93.8 87.6 L95.4 89.5 L91.5 89.2 L94.4 89.8 L95.3 91.8 L96.8 90 L98.1 90.9 L101.7 87.4 L104.4 89.7 L97.5 94.7 L96.3 97.1 L93.3 96.8 L85 93.5 L80.5 93.5 L75.2 90 L76.6 89.8 L74.3 87.1 L74.6 89.7 L69.8 90.4 L68.6 88.8 L65.9 90 L64.3 87.7 L61.7 88.5 L58.1 82.8 L50.6 79.5 L51.3 77.5 L52.7 77.2 L50.6 74.5 L52.7 75.7 L58.4 75.5 L54.5 73 L57 71 L54.2 72.2 L52.1 71.2 L50.1 72.1 L46.5 71.2 L44.2 72.4 L43.9 71 L41.4 70.4 L42.1 68.9 L38.8 70.9 L39 72.4 L33.7 74 L23.5 73.6 L22.3 71.6 L23 68.9 L24.5 69.2 L25.1 68 L25 59.7 L27.1 57.3 L28.7 57.3 L29.8 54.9 L28.4 53.7 L31 52.4 L27.1 52.7 L26.6 49.2 L28 47.3 L26 49.2 L23.8 48.2 L24.5 50.3 L23.2 52.8 L15 49.1 L7.1 49.8 L5.1 51.6 L3.5 51.5 L0.8 49.1 L0 44.1Z"/>
  </defs>
  <g fill="none" stroke="#8b8170" stroke-width="1" opacity="0.35">
    <circle r="67"/>
    <line x1="-67" y1="0" x2="-54" y2="0"/>
    <line x1="54" y1="0" x2="67" y2="0"/>
    <line x1="0" y1="-67" x2="0" y2="-54"/>
    <line x1="0" y1="54" x2="0" y2="67"/>
  </g>
  <g transform="translate(-82.5, -47.6)" fill="#346b4e">
    <use href="#pei-shape" transform="scale(0.825)"/>
  </g>
  <path d="M 0 -64 L 5 0 L 0 4 L -5 0 Z" fill="#1a1612"/>
  <path d="M 0 64 L 5 0 L -5 0 Z" fill="#1a1612" opacity="0.4"/>
  <circle cx="3.88" cy="23.17" r="3" fill="#a8391c" stroke="#f5efe1" stroke-width="1.2"/>
</svg>
